<svg id="Capa_1" enable-background="new 0 0 512 512" height="512" viewBox="0 0 512 512" width="512" xmlns="http://www.w3.org/2000/svg"><g><path d="m512 166c0-8.284-6.716-15-15-15h-106v-45c0-41.355-33.645-75-75-75h-120c-41.355 0-75 33.645-75 75v45h-106c-8.284 0-15 6.716-15 15v300c0 8.284 6.716 15 15 15h482c8.284 0 15-6.716 15-15 0-31.858 0-264.276 0-300zm-361-60c0-24.813 20.187-45 45-45h120c24.813 0 45 20.187 45 45v45h-30v-45c0-8.284-6.716-15-15-15h-120c-8.284 0-15 6.716-15 15v45h-30zm60 45v-30h90v30zm271 30v65.091l-199.065 84.909h-53.869l-199.066-84.91v-65.09zm-241 180h30v15c0 8.271-6.729 15-15 15s-15-6.729-15-15zm-211 90v-172.294l181 77.204v20.09c0 24.813 20.187 45 45 45s45-20.187 45-45v-20.091l181-77.204v172.295z"/><path d="m437 391h-61c-8.284 0-15 6.716-15 15s6.716 15 15 15h61c8.284 0 15-6.716 15-15s-6.716-15-15-15z"/></g></svg>