?xml version="1.0" encoding="utf-8"?>
<!-- Svg Vector Icons : http://www.onlinewebfonts.com/icon -->
<!DOCTYPE svg PUBLIC "-//W3C//DTD SVG 1.1//EN" "http://www.w3.org/Graphics/SVG/1.1/DTD/svg11.dtd">
<svg version="1.1" xmlns="http://www.w3.org/2000/svg" xmlns:xlink="http://www.w3.org/1999/xlink" x="0px" y="0px" viewBox="0 0 1000 1000" enable-background="new 0 0 1000 1000" xml:space="preserve">
<metadata> Svg Vector Icons : http://www.onlinewebfonts.com/icon </metadata>
<g><path d="M756.6,246.7c-19.8-18.2-48.3-17.3-64.3-0.6c-16,16.7-14.2,46.4,2.5,62.5c81.2,60,134.1,156.2,134.5,265.1c-0.5,182.1-147.6,329.3-329.1,329.7c-181.9-0.4-328.8-147.6-329.3-329.7c0.3-109.1,53.5-205.5,135-265.5c15-12.1,16.4-38.5,5.6-54.7c-13.1-19.9-45.3-23-67.4-7.2C147,322.5,84.4,440.7,84.4,573.7C84.4,803.7,270.6,990,500.1,990c229.4,0,415.5-186.3,415.5-416.3C915.6,440.9,853.2,322.9,756.6,246.7z"/><path d="M562.6,495.8c0,32.4-26.2,58.6-58.6,58.6l0,0c-32.3,0-58.5-26.2-58.5-58.6V68.7c0-32.4,26.2-58.7,58.5-58.7l0,0c32.4,0,58.6,26.2,58.6,58.7V495.8z"/></g>
</svg>